<svg height="512" width="512" xmlns="http://www.w3.org/2000/svg"><path d="M230.26 510.722C100.962 497.813 0 388.697 0 256 0 114.615 114.615 0 256 0s256 114.615 256 256c0 71.368-29.204 135.915-76.314 182.343-1.539 1.517-202.594 72.662-205.426 72.379z" fill="#19305c"/><path d="M483.417 247.031c0 116.297-94.277 210.574-210.574 210.574S62.268 363.328 62.268 247.031 156.546 36.457 272.843 36.457s210.574 94.278 210.574 210.574z" fill="#232e7a"/><path d="M65.053 264.934l11.869-11.869a5 5 0 017.071 0 5 5 0 010 7.071l-11.869 11.869a5 5 0 01-7.071 0 5 5 0 010-7.071zm414.081-34.463a5 5 0 000-7.071 5 5 0 00-7.071 0l-91.924 91.924a5 5 0 000 7.071 5 5 0 007.071 0zm-418.77 87.403a5 5 0 010-7.071l52.426-52.426a5 5 0 117.071 7.071l-52.426 52.427a5 5 0 01-7.071-.001zm313.944 44.646a5 5 0 010-7.071l52.426-52.426a5 5 0 117.071 7.071l-52.426 52.427a5 5 0 01-7.071-.001zM206.249 92.516a5 5 0 01-7.071-7.071l15.962-15.962a5 5 0 017.071 7.071zm11.427 322.136a5 5 0 017.071 7.071l-15.962 15.962a5 5 0 01-7.071-7.071z" fill="#2b3894"/><path d="M75.315 214.297a30.933 30.933 0 00-9.792 9.792 1.173 1.173 0 01-1.987 0 30.933 30.933 0 00-9.792-9.792 1.173 1.173 0 010-1.987 30.943 30.943 0 009.792-9.792 1.173 1.173 0 011.987 0 30.933 30.933 0 009.792 9.792 1.173 1.173 0 010 1.987zm376.443-21.712a30.933 30.933 0 01-9.792-9.792 1.173 1.173 0 00-1.987 0 30.933 30.933 0 01-9.792 9.792 1.173 1.173 0 000 1.987 30.933 30.933 0 019.792 9.792 1.173 1.173 0 001.987 0 30.933 30.933 0 019.792-9.792 1.173 1.173 0 000-1.987zM221.48 41.653a30.933 30.933 0 01-9.792-9.792 1.173 1.173 0 00-1.987 0 30.933 30.933 0 01-9.792 9.792 1.173 1.173 0 000 1.987 30.933 30.933 0 019.792 9.792 1.173 1.173 0 001.987 0 30.933 30.933 0 019.792-9.792 1.173 1.173 0 000-1.987z" fill="#65b1cf"/><path d="M126 143c0 18.225-14.775 33-33 33s-33-14.775-33-33 14.775-33 33-33 33 14.775 33 33z" fill="#754ca0"/><path d="M126 143a32.85 32.85 0 01-4.649 16.898 32.84 32.84 0 01-16.898 4.649c-18.225 0-33-14.775-33-33a32.85 32.85 0 014.649-16.898A32.85 32.85 0 0193 110c18.225 0 33 14.775 33 33z" fill="#865cb2"/><path d="M230.697 211.262c-22.176 18.468-48.74 28.188-74.565 28.87.682-25.825 10.402-52.39 28.87-74.566z" fill="#fff68e"/><path d="M360.699 94.732L246.813 208.618c-11.716 11.716-30.711 11.716-42.427 0l-16.741-16.741c-11.716-11.716-11.716-30.711 0-42.427L295.111 41.985c11.716-11.716 30.711-11.716 42.426 0l23.162 23.162c8.17 8.169 8.17 21.415 0 29.585z" fill="#717ed6"/><path d="M360.974 94.457L246.419 209.013c-11.498 11.498-30.139 11.498-41.637 0-11.498-11.498-11.498-30.139 0-41.637L313.036 59.121c11.498-11.498 30.139-11.498 41.637 0l6.301 6.301c8.018 8.017 8.018 21.017 0 29.035z" fill="#8c96dd"/><path d="M222.444 221.942a8.366 8.366 0 01-11.833 0l-36.29-36.29a8.366 8.366 0 010-11.833 8.366 8.366 0 0111.833 0l36.29 36.29a8.366 8.366 0 010 11.833z" fill="#5766ce"/><path d="M401.429 211.167l-73.286 128.582c-5.469 9.596-17.683 12.942-27.279 7.472-9.596-5.469-12.942-17.683-7.472-27.279l73.286-128.582c5.469-9.596 17.683-12.942 27.279-7.472s12.942 17.683 7.472 27.279z" fill="#8cc5db"/><path d="M331.86 333.229l-3.716 6.52c-5.469 9.596-17.683 12.942-27.279 7.472-9.596-5.469-12.942-17.683-7.472-27.279l3.716-6.52c5.469-9.596 17.683-12.942 27.279-7.472 9.596 5.469 12.941 17.683 7.472 27.279z" fill="#8c96dd"/><path d="M367.992 208.911l-102.53 102.531-32.805-32.805-101.868 101.867v21.866c0 13.255-10.745 24-24 24s-24-10.745-24-24v-41c0-6.948 2.952-13.206 7.671-17.589.111-.121 226.771-226.795 226.771-226.795 14.017-14.018 36.744-14.018 50.761 0 25.384 25.385 25.384 66.541 0 91.925z" fill="#8cc5db"/><path d="M388.574 229.492l-88.968 88.968c-7.49 7.49-19.635 7.49-27.126 0l-39.824-39.824 123.112-123.112c11.36-11.36 28.441-13.513 41.97-6.459 15.723 25.097 12.668 58.595-9.164 80.427zm-62.226-108.894c-7.811-7.81-20.474-7.81-28.284 0L193.412 225.25c-7.811 7.811-7.811 20.474 0 28.284 7.811 7.81 20.474 7.81 28.284 0l104.652-104.652c7.811-7.81 7.811-20.474 0-28.284z" fill="#a6d2e3"/><path d="M480.499 130.498c-13.883 13.883-32.147 20.716-50.343 20.497a7.643 7.643 0 01-5.699-2.657c-23.618-27.502-22.398-68.991 3.659-95.048 14.164-14.164 32.887-20.989 51.446-20.475a5.364 5.364 0 013.871 1.803 69.65 69.65 0 0112.352 19.816c.946 2.309-5.304 7.508-4.615 9.886.759 2.623 8.429 2.431 8.875 5.11.608 3.645.926 7.328.955 11.014.065 8.253-6.332 17.381-9.168 25.237-3.027 8.385-2.694 15.442-9.025 22.397a71.85 71.85 0 01-2.308 2.42z" fill="#5766ce"/><path d="M416.891 67.925a69.912 69.912 0 019.052-12.366c21.699 12.092 48.466 11.75 69.879-1.025a69.877 69.877 0 014.329 15.577c-25.023 17.566-58.976 16.838-83.26-2.186zm84.108 12.773c-26.189 20.583-63.672 19.847-89.053-2.208a70.265 70.265 0 00-3.686 33.831l.051.051c20.065 20.066 49.282 25.403 74.216 16.011 12.388-13.453 18.546-30.58 18.472-47.685z" fill="#717ed6"/><path d="M483.805 35.043c-18.074-.123-36.186 6.711-49.976 20.501-26.186 26.186-27.288 67.956-3.307 95.454-17.754-.121-35.472-6.954-49.019-20.501-27.337-27.337-27.337-71.658 0-98.995s71.658-27.337 98.995 0a71.319 71.319 0 013.307 3.541z" fill="#8cc5db"/><path d="M477.073 28.297c-25.156-8.455-54.048-2.663-74.087 17.377-26.705 26.705-28.108 69.131-4.21 97.489a69.987 69.987 0 01-17.273-12.665c-27.337-27.337-27.337-71.658 0-98.995 26.222-26.223 68.074-27.291 95.57-3.206z" fill="#7fbed7"/><path d="M403.069 141.457a7.5 7.5 0 01-10.607 0l-38.184-38.183a7.5 7.5 0 0110.607-10.607l38.184 38.184a7.5 7.5 0 010 10.606z" fill="#c0dfeb"/><path d="M419.333 157.721a7.5 7.5 0 01-10.607 0l-36.377-36.377a7.5 7.5 0 0110.607-10.606l36.377 36.377a7.5 7.5 0 010 10.606z" fill="#fff5f5"/><path d="M169.326 419.042v21.866c0 13.255-10.745 24-24 24s-24-10.745-24-24v-41c0-7.273 3.236-13.791 8.346-18.192.331-.394 136.926-137.021 136.926-137.021l38.537 38.537z" fill="#a6d2e3"/><path d="M409.433 167.621a7.5 7.5 0 01-10.607 0l-54.447-54.447a7.5 7.5 0 0110.607-10.607l54.447 54.447a7.5 7.5 0 010 10.607zM278.265 310.103l-70.711-70.711c-3.905-3.905-10.237-3.905-14.142 0s-3.905 10.237 0 14.142l70.711 70.71c3.905 3.905 10.237 3.905 14.142 0 3.905-3.905 3.905-10.236 0-14.141zm-32.5 32.5l-11.613-11.613c-3.905-3.905-10.237-3.905-14.142 0l-21.939 21.939c-3.905 3.905-3.905 10.237 0 14.142l11.613 11.613c3.905 3.905 10.237 3.905 14.142 0l21.939-21.939c3.905-3.906 3.905-10.237 0-14.142zm98.968-107.454l-19.799-19.799a6 6 0 00-8.485 8.485l19.799 19.799a6 6 0 008.485-8.485zm-14.142 14.143a6 6 0 01-8.485 8.485l-19.799-19.799a6 6 0 018.485-8.485z" fill="#7fbed7"/><path d="M179.27 423.24c-3.905 3.905-10.237 3.905-14.142 0l-77.782-77.782c-3.905-3.905-3.905-10.237 0-14.142 3.905-3.905 10.237-3.905 14.142 0l77.782 77.782c3.905 3.905 3.905 10.236 0 14.142z" fill="#a6d2e3"/><path d="M179.27 423.24c-3.905 3.905-10.237 3.905-14.142 0l-43.841-43.841c-3.905-3.905-3.905-10.237 0-14.142s10.237-3.905 14.142 0l43.841 43.841c3.905 3.905 3.905 10.236 0 14.142z" fill="#c0dfeb"/><path d="M344.379 113.173a7.5 7.5 0 0110.607-10.607L382.72 130.3a7.5 7.5 0 00-10.607 10.607zm-136.614 191.43l-11.613-11.613c-3.905-3.905-10.237-3.905-14.142 0l-21.939 21.939c-3.905 3.905-3.905 10.237 0 14.142l11.613 11.613c3.905 3.905 10.237 3.905 14.142 0l21.939-21.939c3.905-3.906 3.905-10.237 0-14.142z" fill="#65b1cf"/><path d="M228.768 246.463l-7.071 7.071c-7.81 7.81-20.474 7.81-28.284 0-7.811-7.81-7.811-20.474 0-28.284l7.071-7.071c7.811-7.811 20.474-7.811 28.284 0 7.81 7.81 7.81 20.473 0 28.284z" fill="#8c96dd"/><path d="M367.829 196.02l-12.728 12.728a6 6 0 01-8.485 0l-7.54-7.54a6 6 0 010-8.485l12.728-12.728a6 6 0 018.485 0l7.54 7.54a6 6 0 010 8.485z" fill="#5766ce"/><path d="M380.088 208.279l-12.728 12.728a6 6 0 01-8.485 0l-12.728-12.728a6 6 0 010-8.485l12.728-12.728a6 6 0 018.485 0l12.728 12.728a6 6 0 010 8.485zm39.994-161.127c0 8.284-6.716 15-15 15s-15-6.716-15-15 6.716-15 15-15 15 6.716 15 15z" fill="#717ed6"/><path d="M412.582 47.152a7.5 7.5 0 11-15 0 7.5 7.5 0 0115 0z" fill="#5766ce"/><path d="M457.392 354.018a30.933 30.933 0 00-9.792 9.792 1.173 1.173 0 01-1.987 0 30.933 30.933 0 00-9.792-9.792 1.173 1.173 0 010-1.987 30.933 30.933 0 009.792-9.792 1.173 1.173 0 011.987 0 30.933 30.933 0 009.792 9.792c.733.46.733 1.528 0 1.987z" fill="#865cb2"/><path d="M160.966 76.122a41.486 41.486 0 00-13.133 13.133 1.573 1.573 0 01-2.665 0 41.486 41.486 0 00-13.133-13.133 1.573 1.573 0 010-2.665 41.486 41.486 0 0013.133-13.133 1.573 1.573 0 012.665 0 41.486 41.486 0 0013.133 13.133 1.573 1.573 0 010 2.665z" fill="#ffc14f"/><path d="M279.219 465.629c0 13.384 2.044 26.291 5.835 38.425.992 3.174-1.193 6.469-4.503 6.784A259.402 259.402 0 01256 512c-8.688 0-17.274-.433-25.74-1.278A114.8 114.8 0 01230 503c0-7.79.788-15.396 2.29-22.742-5.125-3.188-8.537-8.87-8.537-15.35 0-9.976 8.087-18.064 18.064-18.064 1.01 0 2 .083 2.964.242 12.099-21.208 30.87-38.118 53.454-47.872-.297.174-19.016 42.334-19.016 66.415z" fill="#ffa90b"/><path d="M435.686 438.343c-40.989 40.395-95.533 67.073-156.189 72.593-6.599-14.351-10.278-30.323-10.278-47.154 0-21.147 5.809-40.938 15.919-57.863a112.31 112.31 0 0135.194-13.645c1.456-8.515 8.873-14.997 17.804-14.997 8.37 0 15.41 5.692 17.46 13.417a112.545 112.545 0 0117.01 3.224 10.257 10.257 0 018.793-4.967c5.668 0 10.263 4.595 10.263 10.263 0 .58-.049 1.149-.142 1.703 17.772 8.463 32.986 21.431 44.166 37.426z" fill="#ffc14f"/><path d="M314.691 479.03c0 7.799-6.323 14.122-14.122 14.122s-14.122-6.323-14.122-14.122 6.323-14.122 14.122-14.122c7.8 0 14.122 6.323 14.122 14.122zm5.798-69.285c-9.976 0-18.064 8.087-18.064 18.064s8.087 18.064 18.064 18.064 18.064-8.087 18.064-18.064-8.087-18.064-18.064-18.064zm59.407 20.196c-5.668 0-10.263 4.595-10.263 10.263s4.595 10.263 10.263 10.263 10.263-4.595 10.263-10.263-4.594-10.263-10.263-10.263z" fill="#ffa90b"/></svg>