<svg xmlns="http://www.w3.org/2000/svg" viewBox="0 0 89.76 89.76"><g data-name="Capa 1"><path d="M49.68 39.41v-.11a.76.76 0 01-.08.11z" fill="#007ab9"/><path d="M44.88 0a44.88 44.88 0 1044.88 44.88A44.88 44.88 0 0044.88 0zM33 67H22.29V34.73H33zm-5.35-36.68h-.06c-3.61 0-5.93-2.47-5.93-5.57s2.4-5.57 6.07-5.57 5.92 2.41 6 5.57-2.33 5.57-6.08 5.57zM71.69 67H61V49.73c0-4.33-1.55-7.3-5.44-7.3A5.88 5.88 0 0050 46.36a7.37 7.37 0 00-.32 2.64v18H39s.14-29.24 0-32.26h10.68v4.56a10.65 10.65 0 019.66-5.3c7.06 0 12.35 4.61 12.35 14.52z" fill="#fff"/></g></svg>