<svg xmlns="http://www.w3.org/2000/svg" viewBox="0 0 89.76 89.76"><defs><style>.cls-1{fill:#fff}</style></defs><g id="Capa_1" data-name="Capa 1"><path class="cls-1" d="M38.3 38c0-3.52-2.39-3.52-2.39-3.52h-9.83V42h9.23c1.59 0 2.99-.49 2.99-4zm-2.39 9.22h-9.83v9.05h9.34c1.4 0 4-.44 4-4.39.06-4.69-3.51-4.66-3.51-4.66z"/><path class="cls-1" d="M44.88 0a44.88 44.88 0 1044.88 44.88A44.88 44.88 0 0044.88 0zm8.82 30.46h14v4.16h-14zm-7 21.83c0 10.32-10.75 10-10.75 10H18.33V28.47h17.58c5.35 0 9.56 3 9.56 9s-5.15 6.43-5.15 6.43c6.8 0 6.34 8.39 6.34 8.39zm26.07-.54H55.23c0 6.27 5.93 5.87 5.93 5.87 5.63 0 5.43-3.64 5.43-3.64h5.94c0 9.66-11.56 9-11.56 9C47.1 63 48 50.05 48 50.05s0-13 13-13c13.66.02 11.73 14.7 11.73 14.7z"/><path class="cls-1" d="M61.1 42c-5.22 0-5.94 5.2-5.94 5.2h11.09s.08-5.2-5.15-5.2z"/></g></svg>